<svg xmlns="http://www.w3.org/2000/svg" viewBox="0 0 64 64" width="64" height="64">
  <title>campfire</title>
  <!-- Fire flames -->
  <path
    d="M32 8 C28 12, 26 18, 28 24 C26 22, 24 24, 24 28 C24 34, 28 38, 32 38 C36 38, 40 34, 40 28 C40 24, 38 22, 36 24 C38 18, 36 12, 32 8 Z"
    fill="#ff6b35" />
  <path
    d="M32 12 C30 15, 29 19, 30 23 C29 22, 28 23, 28 26 C28 30, 30 33, 32 33 C34 33, 36 30, 36 26 C36 23, 35 22, 34 23 C35 19, 34 15, 32 12 Z"
    fill="#ffa500" />
  <path
    d="M32 16 C31 18, 30 20, 31 22 C30.5 21.5, 30 22, 30 23.5 C30 26, 31 27.5, 32 27.5 C33 27.5, 34 26, 34 23.5 C34 22, 33.5 21.5, 33 22 C33.5 20, 33 18, 32 16 Z"
    fill="#ffeb3b" />
  <!-- Wood logs -->
  <ellipse cx="32" cy="48" rx="20" ry="4" fill="#5d4037" />
  <rect x="18" y="44" width="28" height="6" rx="2" fill="#6d4c41" transform="rotate(-15 32 47)" />
  <rect x="18" y="44" width="28" height="6" rx="2" fill="#795548" transform="rotate(15 32 47)" />
  <rect x="20" y="46" width="24" height="5" rx="2" fill="#8d6e63" />
  <!-- Sparks -->
  <circle cx="26" cy="18" r="1" fill="#ffeb3b" opacity="0.8" />
  <circle cx="38" cy="16" r="1" fill="#ffa500" opacity="0.8" />
  <circle cx="30" cy="10" r="0.8" fill="#ff6b35" opacity="0.7" />
</svg>